<?xml version="1.0" encoding="UTF-8"?>
<svg version="1.1" xmlns="http://www.w3.org/2000/svg" width="1024" height="1024" viewBox="133 276 788 502">
  <path d="M0 0 C11.88 0 23.76 0 36 0 C36 56.76 36 113.52 36 172 C24.12 172 12.24 172 0 172 C-0.33 168.7 -0.66 165.4 -1 162 C-2.051875 162.86625 -3.10375 163.7325 -4.1875 164.625 C-14.47667945 172.3740958 -24.5072949 175.18614645 -37.0625 175.25 C-38.54266602 175.2809375 -38.54266602 175.2809375 -40.05273438 175.3125 C-55.39337784 175.3928701 -66.61531037 169.78558934 -77.68359375 159.41015625 C-81.35747155 155.58758863 -84.26460631 151.53217189 -87 147 C-87.81984375 145.66195312 -87.81984375 145.66195312 -88.65625 144.296875 C-96.98703676 129.35046345 -99.07506725 107.91499766 -94.45996094 91.41503906 C-93.4427528 88.2099896 -92.26327578 85.1179466 -91 82 C-90.62746094 81.06800781 -90.25492188 80.13601563 -89.87109375 79.17578125 C-83.68972419 65.45615614 -71.81218008 54.42792618 -58.375 47.875 C-45.30976819 43.35426948 -26.7776991 43.74091725 -14 49 C-10.72265625 50.7890625 -10.72265625 50.7890625 -8.0625 52.625 C-5.29463987 54.51272043 -3.18562514 55.93812495 0 57 C0 38.19 0 19.38 0 0 Z " fill="#060606" transform="translate(804,501)" />
  <path d="M0 0 C10.57260688 7.75568394 17.41051651 17.35676162 22.4453125 29.34375 C22.863573 30.31948975 22.863573 30.31948975 23.2902832 31.31494141 C25.8712844 38.00824085 25.94450927 44.482827 25.8828125 51.59375 C25.87596436 52.79507568 25.86911621 53.99640137 25.86206055 55.23413086 C25.70959533 63.63113865 25.01623995 70.65341932 21.4453125 78.34375 C21.07148438 79.22417969 20.69765625 80.10460937 20.3125 81.01171875 C17.51717664 87.12995961 13.83717739 92.27346695 9.4453125 97.34375 C8.81109375 98.0965625 8.176875 98.849375 7.5234375 99.625 C-3.81794398 112.07493757 -21.34812339 118.90843254 -37.95703125 119.78515625 C-49.31812902 120.10959601 -60.07446476 120.14968071 -70.5546875 115.34375 C-71.56015625 114.91964844 -72.565625 114.49554688 -73.6015625 114.05859375 C-89.59334747 106.77299628 -100.58924093 94.32374062 -107.5546875 78.34375 C-107.90885742 77.54066406 -108.26302734 76.73757813 -108.62792969 75.91015625 C-111.57194979 68.61808761 -112.1349389 62.22073788 -111.9921875 54.40625 C-111.99927734 53.31634766 -112.00636719 52.22644531 -112.01367188 51.10351562 C-111.8671893 32.13965616 -104.44081653 17.54035687 -91.36328125 4.08984375 C-85.99676104 -0.96946958 -80.1660875 -4.44125518 -73.5546875 -7.65625 C-72.595625 -8.13384766 -72.595625 -8.13384766 -71.6171875 -8.62109375 C-49.14629085 -19.07630261 -19.97722148 -12.95159313 0 0 Z " fill="#050505" transform="translate(431.5546875,361.65625)" />
  <path d="M0 0 C1.15274414 0.00491455 2.30548828 0.0098291 3.49316406 0.01489258 C11.50761496 0.12554239 18.56135199 0.71503814 26.1875 3.3125 C27.33992188 3.67601562 28.49234375 4.03953125 29.6796875 4.4140625 C47.28619435 10.28289812 65.83985609 21.64930867 75.1875 38.3125 C75.1875 38.9725 75.1875 39.6325 75.1875 40.3125 C73.63509659 41.70575954 72.01720015 43.02630128 70.375 44.3125 C65.15293842 48.47256201 60.25945055 52.86304302 55.40234375 57.44140625 C53.1875 59.3125 53.1875 59.3125 51.1875 59.3125 C51.1875 59.9725 51.1875 60.6325 51.1875 61.3125 C50.1975 61.3125 49.2075 61.3125 48.1875 61.3125 C46.86328125 59.84375 46.86328125 59.84375 45.5 57.8125 C37.62107981 46.88988938 27.2921114 38.60676909 13.859375 35.74609375 C8.92175753 35.16303467 4.03180774 34.99345134 -0.9375 34.9375 C-2.31494385 34.91635132 -2.31494385 34.91635132 -3.72021484 34.89477539 C-16.30409483 34.98383887 -26.9465916 39.42502658 -36.0625 48.125 C-50.31529973 63.38151803 -52.4922747 81.60731232 -51.92675781 101.70019531 C-51.37903577 114.22290017 -46.17666198 122.61544917 -38.8125 132.3125 C-38.14863281 133.20453125 -37.48476562 134.0965625 -36.80078125 135.015625 C-28.91786589 144.73292947 -18.10565716 149.84963996 -5.8125 151.3125 C11.70728776 152.90793172 25.31761138 149.7538089 39.1875 138.3125 C41.9170585 135.83343031 41.9170585 135.83343031 44.1875 133.3125 C46.14409609 131.25292516 48.13147543 129.2771457 50.1875 127.3125 C52.1875 127.3125 52.1875 127.3125 54.25 129.25 C55.23128126 130.26880084 56.21007468 131.28999924 57.1875 132.3125 C62.656282 137.89608468 68.22339839 143.25845204 74.1875 148.3125 C72.48090665 157.85678135 60.60462659 166.13333126 53.21875 171.44921875 C31.56333472 185.51987843 4.09544694 189.19360667 -21.19921875 184.47265625 C-43.53941521 179.21227151 -64.661319 164.9701443 -76.94140625 145.52490234 C-90.3520417 123.42280308 -95.30425518 94.43920251 -89.25 69.125 C-83.2850085 46.70438865 -69.91324625 26.26765399 -50.125 13.75 C-41.42126987 8.8066193 -32.5632989 4.68505726 -22.8125 2.3125 C-22.12470459 2.14258545 -21.43690918 1.9726709 -20.72827148 1.79760742 C-13.79620768 0.23131155 -7.09052291 -0.03566973 0 0 Z " fill="#050505" transform="translate(244.8125,297.6875)" />
  <path d="M0 0 C0.54527344 0.45117188 1.09054687 0.90234375 1.65234375 1.3671875 C1.65234375 2.0271875 1.65234375 2.6871875 1.65234375 3.3671875 C2.31234375 3.3671875 2.97234375 3.3671875 3.65234375 3.3671875 C3.65234375 0.0671875 3.65234375 -3.2328125 3.65234375 -6.6328125 C14.87234375 -6.6328125 26.09234375 -6.6328125 37.65234375 -6.6328125 C37.65234375 33.9571875 37.65234375 74.5471875 37.65234375 116.3671875 C26.43234375 116.3671875 15.21234375 116.3671875 3.65234375 116.3671875 C3.65234375 112.4071875 3.65234375 108.4471875 3.65234375 104.3671875 C2.99234375 104.3671875 2.33234375 104.3671875 1.65234375 104.3671875 C1.15734375 105.8521875 1.15734375 105.8521875 0.65234375 107.3671875 C-13.77753519 119.32414933 -29.20413072 120.76958561 -47.34765625 119.3671875 C-55.4519259 117.89216014 -61.83628536 114.2910754 -68.34765625 109.3671875 C-69.23453125 108.7484375 -70.12140625 108.1296875 -71.03515625 107.4921875 C-81.16150515 98.18689392 -85.40437519 86.32568984 -86.0324707 72.83886719 C-86.31364499 59.75109926 -86.31364499 59.75109926 -83.2890625 55.41796875 C-80.68311272 53.63291251 -78.29343485 52.48529325 -75.34765625 51.3671875 C-74.56132812 50.87992188 -73.775 50.39265625 -72.96484375 49.890625 C-64.79651659 45.1359271 -54.75423071 42.61065178 -45.34765625 42.3671875 C-45.34765625 43.0271875 -45.34765625 43.6871875 -45.34765625 44.3671875 C-46.00765625 44.3671875 -46.66765625 44.3671875 -47.34765625 44.3671875 C-47.61578125 45.2128125 -47.88390625 46.0584375 -48.16015625 46.9296875 C-49.34765625 50.3671875 -49.34765625 50.3671875 -50.91015625 53.4609375 C-52.88332138 58.01992074 -52.68021802 62.41350226 -52.53515625 67.3046875 C-52.52162109 68.17931641 -52.50808594 69.05394531 -52.49414062 69.95507812 C-52.45909734 72.09271836 -52.40530166 74.23003734 -52.34765625 76.3671875 C-51.68765625 76.3671875 -51.02765625 76.3671875 -50.34765625 76.3671875 C-48.91015625 78.046875 -48.91015625 78.046875 -47.34765625 80.2421875 C-43.98495938 84.93314963 -41.08732246 87.92768655 -35.34765625 89.3671875 C-24.72311999 90.39109406 -16.34018105 89.31970386 -7.41015625 83.4296875 C-5.23413568 81.25366693 -3.89089669 79.01274253 -2.34765625 76.3671875 C-1.68765625 76.3671875 -1.02765625 76.3671875 -0.34765625 76.3671875 C2.56914978 69.10989631 2.98089417 61.96443021 3.02734375 54.2421875 C3.04764648 52.84782471 3.04764648 52.84782471 3.06835938 51.42529297 C3.01055762 42.37129031 0.97340225 34.1305358 -5.34765625 27.3671875 C-6.98143267 26.31430936 -8.63947222 25.2944874 -10.34765625 24.3671875 C-10.34765625 23.7071875 -10.34765625 23.0471875 -10.34765625 22.3671875 C-22.22063843 19.3031921 -32.75611887 18.63868708 -43.7265625 24.6640625 C-48.84578966 27.99041576 -52.13832972 31.13717389 -55.34765625 36.3671875 C-60.4498129 34.89449796 -63.23907956 31.79154727 -66.78515625 28.0546875 C-70.79678142 23.88240832 -74.83308824 19.9965461 -79.34765625 16.3671875 C-75.31676057 7.43875357 -67.48463357 1.39373962 -59.34765625 -3.6328125 C-58.7134375 -4.03371094 -58.07921875 -4.43460938 -57.42578125 -4.84765625 C-38.51813298 -15.55391008 -17.12577361 -11.3000831 0 0 Z " fill="#040404" transform="translate(532.34765625,556.6328125)" />
  <path d="M0 0 C0 0.66 0 1.32 0 2 C0.73089844 2.2371875 1.46179688 2.474375 2.21484375 2.71875 C8.90744335 5.79753355 13.76200831 12.62297452 16.5 19.3125 C18.76948999 25.66917336 19.14144906 31.50940031 19.11352539 38.1965332 C19.11367142 39.11409897 19.11381744 40.03166473 19.1139679 40.97703552 C19.11327275 44.00164171 19.10549897 47.02618586 19.09765625 50.05078125 C19.09579066 52.15113796 19.09436742 54.25149511 19.09336853 56.35185242 C19.08955449 61.8739645 19.07973368 67.39605019 19.06866455 72.91815186 C19.05842652 78.55545698 19.05386578 84.19276638 19.04882812 89.83007812 C19.03811043 100.8867322 19.02052262 111.94335977 19 123 C7.45 123 -4.1 123 -16 123 C-16.03738281 117.40160156 -16.07476563 111.80320312 -16.11328125 106.03515625 C-16.14357847 102.47588143 -16.17473778 98.91665555 -16.20898438 95.35742188 C-16.26318944 89.71543931 -16.31430397 84.07355357 -16.34643555 78.43139648 C-16.37255861 73.87951185 -16.41302398 69.32795467 -16.46318626 64.77627373 C-16.47979432 63.04490691 -16.49134617 61.31348354 -16.49761391 59.58204842 C-16.13222207 45.17734611 -16.13222207 45.17734611 -22.0625 32.5 C-23.92941811 30.95449013 -23.92941811 30.95449013 -26 30 C-26 29.34 -26 28.68 -26 28 C-28.85475306 27.91843563 -31.70713565 27.85923628 -34.5625 27.8125 C-35.36236328 27.78736328 -36.16222656 27.76222656 -36.98632812 27.73632812 C-43.20738307 27.66015194 -47.9206592 28.48690162 -52.890625 32.54296875 C-53.33921875 33.08566406 -53.7878125 33.62835938 -54.25 34.1875 C-54.70890625 34.71730469 -55.1678125 35.24710937 -55.640625 35.79296875 C-59.22434076 41.61135784 -60.44639591 47.22211764 -60.43237305 53.9765625 C-60.4425647 54.72875565 -60.45275635 55.48094879 -60.46325684 56.25593567 C-60.49316036 58.71236843 -60.50261758 61.16840986 -60.51171875 63.625 C-60.52858231 65.33993808 -60.54673479 67.05486392 -60.56611633 68.76977539 C-60.61344058 73.26100847 -60.64336325 77.75219192 -60.66955566 82.24359131 C-60.7047158 87.6444986 -60.76167816 93.04521544 -60.81494904 98.44596863 C-60.89325672 106.63062095 -60.94401788 114.81502747 -61 123 C-72.55 123 -84.1 123 -96 123 C-96 82.08 -96 41.16 -96 -1 C-84.45 -1 -72.9 -1 -61 -1 C-61 2.96 -61 6.92 -61 11 C-60.34 11 -59.68 11 -59 11 C-58.7525 10.4121875 -58.505 9.824375 -58.25 9.21875 C-54.25386526 2.12561084 -45.50772762 -1.77990884 -38 -4 C-25.53729783 -6.52989458 -11.54958781 -5.77479391 0 0 Z " fill="#040404" transform="translate(720,354)" />
  <path d="M0 0 C1.0725 0.556875 2.145 1.11375 3.25 1.6875 C13.82479745 10.57994331 18.35480959 19.34042216 20 33 C20.13005923 35.95863234 20.12687122 38.91171175 20.11352539 41.87280273 C20.11367142 42.73213913 20.11381744 43.59147552 20.1139679 44.47685242 C20.11327545 47.29579255 20.10551453 50.11466526 20.09765625 52.93359375 C20.09578969 54.89657047 20.09436691 56.85954767 20.09336853 58.82252502 C20.08956206 63.97306621 20.07974783 69.12357891 20.06866455 74.27410889 C20.05841013 79.53625096 20.05386229 84.79839767 20.04882812 90.06054688 C20.03812381 100.3737124 20.02054224 110.68684937 20 121 C8.12 121 -3.76 121 -16 121 C-16.02578125 115.16183594 -16.0515625 109.32367187 -16.078125 103.30859375 C-16.10330033 99.60347208 -16.12963846 95.89843149 -16.16015625 92.19335938 C-16.20845353 86.31632204 -16.25251236 80.43947244 -16.27099609 74.56225586 C-16.28617309 69.82228852 -16.32063723 65.08281325 -16.36830902 60.34306526 C-16.38311205 58.53747911 -16.3910404 56.7318227 -16.39188385 54.92617607 C-16.39425855 52.39092826 -16.42137721 49.85703478 -16.45410156 47.32202148 C-16.4490712 46.58042786 -16.44404083 45.83883423 -16.43885803 45.07476807 C-16.56295871 38.83456564 -18.61143306 35.01167136 -22.4375 30.1875 C-28.44431064 25.62232391 -36.27914089 26.38087094 -43.3828125 27.3125 C-48.75026596 28.45537982 -52.09043773 30.34896917 -55.29472351 34.79745483 C-60.16991598 43.12935333 -59.73211332 51.70368807 -59.70703125 61.0390625 C-59.72016621 62.77356692 -59.73547591 64.50805609 -59.75285339 66.24252319 C-59.79250636 70.77659261 -59.80288104 75.3102601 -59.80688477 79.84448242 C-59.81790487 85.30134854 -59.86577392 90.75800419 -59.90737152 96.21470642 C-59.96627606 104.47664987 -59.97875464 112.7374878 -60 121 C-71.55 121 -83.1 121 -95 121 C-95 80.41 -95 39.82 -95 -2 C-83.45 -2 -71.9 -2 -60 -2 C-60 1.63 -60 5.26 -60 9 C-59.18917969 8.32453125 -58.37835937 7.6490625 -57.54296875 6.953125 C-41.1095664 -6.44688051 -19.44470036 -10.63721248 0 0 Z " fill="#050505" transform="translate(680,552)" />
  <path d="M0 0 C1.04921631 0.00539795 2.09843262 0.0107959 3.17944336 0.01635742 C11.14539911 0.17243167 17.76557767 1.24917883 25.125 4.4375 C25.89328125 4.74558594 26.6615625 5.05367188 27.453125 5.37109375 C29.02788052 6.01897545 30.58101458 6.71936724 32.125 7.4375 C32.125 8.0975 32.125 8.7575 32.125 9.4375 C32.8675 9.705625 33.61 9.97375 34.375 10.25 C36.99136554 11.37979421 38.92687111 12.64643202 41.125 14.4375 C40.795 15.4275 40.465 16.4175 40.125 17.4375 C39.465 17.4375 38.805 17.4375 38.125 17.4375 C37.74988281 18.27474609 37.74988281 18.27474609 37.3671875 19.12890625 C35.92052582 21.81751334 34.18079053 24.01069235 32.25 26.375 C31.57195312 27.20902344 30.89390625 28.04304688 30.1953125 28.90234375 C29.51210938 29.73894531 28.82890625 30.57554687 28.125 31.4375 C26.78997731 33.10281377 25.45614831 34.76908766 24.125 36.4375 C22.475 35.7775 20.825 35.1175 19.125 34.4375 C19.125 33.7775 19.125 33.1175 19.125 32.4375 C18.25875 32.31375 17.3925 32.19 16.5 32.0625 C13.125 31.4375 13.125 31.4375 10.39453125 30.41796875 C6.61921856 29.28582599 3.37439557 29.13675193 -0.5625 29.125 C-1.86574219 29.10824219 -3.16898438 29.09148437 -4.51171875 29.07421875 C-7.79471302 29.16279052 -7.79471302 29.16279052 -9.8046875 30.74609375 C-11.65651884 33.67252795 -11.27979364 36.08349556 -10.875 39.4375 C-7.91372005 45.3600599 -1.66409745 47.04174054 4.125 49.4375 C5.71036595 50.14127224 7.29388249 50.8492343 8.875 51.5625 C11.36251218 52.67049398 13.84893944 53.72986016 16.375 54.75 C27.73974469 59.7187721 39.06049094 65.38784738 44.1875 77.4375 C47.2034396 89.14766547 46.26215239 102.00590255 40.125 112.4375 C34.11431268 122.3668432 24.70775795 128.43132766 13.6875 131.7890625 C6.65573395 133.06896729 -0.42904299 132.8036571 -7.546875 132.52734375 C-9.56163991 132.44959275 -11.57777012 132.40888201 -13.59375 132.375 C-24.32884755 131.95810301 -33.83716303 128.11242089 -42.875 122.4375 C-42.875 121.7775 -42.875 121.1175 -42.875 120.4375 C-43.65875 120.14875 -44.4425 119.86 -45.25 119.5625 C-47.875 118.4375 -47.875 118.4375 -49.875 116.4375 C-50.32648088 113.33356895 -50.2174961 111.9284718 -48.40625 109.33203125 C-47.40078125 108.30142578 -47.40078125 108.30142578 -46.375 107.25 C-41.9189549 102.5234093 -37.88420164 97.54496699 -33.875 92.4375 C-32.555 92.7675 -31.235 93.0975 -29.875 93.4375 C-29.875 94.0975 -29.875 94.7575 -29.875 95.4375 C-29.30523438 95.7159375 -28.73546875 95.994375 -28.1484375 96.28125 C-25.13031879 97.81623821 -22.21819564 99.52130182 -19.2890625 101.21875 C-14.10286401 103.83702497 -9.67700424 104.71294739 -3.875 104.6875 C-2.699375 104.69265625 -1.52375 104.6978125 -0.3125 104.703125 C3.14437245 104.43600304 5.90017473 103.67630483 9.125 102.4375 C9.84156274 95.12416985 9.84156274 95.12416985 7.1875 88.5625 C0.82642021 84.14868953 -5.48033813 81.15327923 -12.75 78.5625 C-19.78226501 76.04179292 -25.8024608 72.84245072 -31.875 68.4375 C-32.46667969 68.04046875 -33.05835938 67.6434375 -33.66796875 67.234375 C-39.5758836 62.92114154 -43.66146403 55.31272232 -45.875 48.4375 C-46.88417406 37.08756837 -46.13826117 25.68165058 -38.875 16.4375 C-38.2871875 15.6434375 -37.699375 14.849375 -37.09375 14.03125 C-34.70727916 11.24143198 -32.34636703 9.37278254 -29.3125 7.3125 C-28.36246094 6.64992188 -27.41242187 5.98734375 -26.43359375 5.3046875 C-18.32042732 0.58612606 -9.18095271 -0.09090052 0 0 Z " fill="#050506" transform="translate(797.875,348.5625)" />
  <path d="M0 0 C2.32693945 0.69184011 4.66170418 1.34704192 7 2 C7 2.66 7 3.32 7 4 C7.70125 4.061875 8.4025 4.12375 9.125 4.1875 C13.0332733 5.29201202 15.00357248 7.28230992 18 10 C16.22409413 14.19281918 13.37487885 17.53144285 10.5625 21.0625 C10.07201172 21.68705078 9.58152344 22.31160156 9.07617188 22.95507812 C4.27816168 29.02219762 4.27816168 29.02219762 2 31 C-1.74608325 30.75515796 -4.53420422 29.35609689 -7.75 27.5 C-8.52859375 27.0565625 -9.3071875 26.613125 -10.109375 26.15625 C-12 25 -12 25 -13 24 C-15.45284945 23.84614213 -17.85820214 23.76836706 -20.3125 23.75 C-20.98990234 23.729375 -21.66730469 23.70875 -22.36523438 23.6875 C-25.45922733 23.66330455 -27.68133268 23.83404865 -30.4453125 25.2734375 C-32.55144546 27.61240928 -32.52669877 29.80096298 -32.62890625 32.8671875 C-31.30009444 37.37359277 -27.65014368 39.63424575 -23.72265625 41.84375 C-22.5085991 42.40889452 -21.28819243 42.96055476 -20.0625 43.5 C-19.41659912 43.79334229 -18.77069824 44.08668457 -18.10522461 44.38891602 C-11.54107687 47.31366251 -4.81264314 49.72212086 2 52 C2 52.66 2 53.32 2 54 C2.7321875 54.26554688 3.464375 54.53109375 4.21875 54.8046875 C11.75018733 58.0415131 17.54721102 63.58135701 21 71 C25.23019684 81.67975752 23.34178257 93.3182307 20 104 C19.34 104 18.68 104 18 104 C17.7215625 104.99 17.7215625 104.99 17.4375 106 C13.07962045 115.09470514 6.06380988 119.20193875 -3 123 C-4.16402344 123.54140625 -5.32804687 124.0828125 -6.52734375 124.640625 C-12.376618 126.7890403 -18.47059725 126.48860272 -24.625 126.4375 C-25.87522949 126.43065186 -27.12545898 126.42380371 -28.41357422 126.41674805 C-41.39857107 126.19059057 -51.63187263 123.39129742 -63 117 C-63 116.34 -63 115.68 -63 115 C-63.556875 114.9175 -64.11375 114.835 -64.6875 114.75 C-67.69714206 113.77389987 -69.62154752 112.04811186 -72 110 C-71.50943856 105.47235918 -69.93887595 103.42908579 -66.8125 100.1875 C-62.8736118 95.9906335 -59.33718455 91.68514537 -56 87 C-52.62919406 87.62394151 -50.46356088 88.89280378 -47.6875 90.875 C-38.71537789 97.00840151 -29.85841903 98.95858189 -19 98 C-15.88062031 96.62747293 -14.5102285 96.020457 -13 93 C-12.39191718 89.86555246 -12.31730519 87.12769484 -13 84 C-16.98901889 78.40517797 -24.37873072 76.59570272 -30.57226562 74.38549805 C-44.11259817 69.51729215 -56.96980412 64.16782155 -63.875 50.8125 C-64.61050957 49.22061041 -65.31974189 47.61627217 -66 46 C-66.54914063 44.80310547 -66.54914063 44.80310547 -67.109375 43.58203125 C-69.81972706 35.72438779 -68.3723181 27.00909598 -65.26171875 19.5 C-60.54539154 10.15495538 -52.84308962 2.739068 -43.08203125 -1.16796875 C-28.13086929 -5.83015904 -14.72499838 -5.06229555 0 0 Z " fill="#050506" transform="translate(370,550)" />
  <path d="M0 0 C11.88 0 23.76 0 36 0 C36 57.75 36 115.5 36 175 C24.12 175 12.24 175 0 175 C0 117.25 0 59.5 0 0 Z " fill="#070707" transform="translate(519,302)" />
  <path d="M0 0 C11.88 0 23.76 0 36 0 C36 56.76 36 113.52 36 172 C24.12 172 12.24 172 0 172 C0 115.24 0 58.48 0 0 Z " fill="#080808" transform="translate(402,501)" />
  <path d="M0 0 C11.55 0 23.1 0 35 0 C35 57.75 35 115.5 35 175 C23.45 175 11.9 175 0 175 C0 117.25 0 59.5 0 0 Z " fill="#040404" transform="translate(467,302)" />
  <path d="M0 0 C11.88 0 23.76 0 36 0 C36 56.1 36 112.2 36 170 C24.12 170 12.24 170 0 170 C0 113.9 0 57.8 0 0 Z " fill="#020202" transform="translate(250,503)" />
  <path d="M0 0 C10.23 0 20.46 0 31 0 C34.09842044 9.22484267 37.18335484 18.43851387 40.01171875 27.75 C41.11567714 31.38040861 42.24222979 35.00350746 43.375 38.625 C43.58261963 39.28902832 43.79023926 39.95305664 44.00415039 40.63720703 C45.40785104 45.1211769 46.81996213 49.60245804 48.23608398 54.08251953 C48.74406175 55.69006055 49.25138941 57.29780716 49.75805664 58.90576172 C50.97908973 62.77968399 52.20794317 66.65065009 53.45703125 70.515625 C53.68583984 71.23041016 53.91464844 71.94519531 54.15039062 72.68164062 C54.7699288 74.61701211 55.39454365 76.55075642 56.01953125 78.484375 C57.87239607 85.12811339 58.30335896 89.34605884 55.875 95.875 C55.40193203 97.18902231 54.93199869 98.50417642 54.46484375 99.8203125 C54.2210498 100.50125977 53.97725586 101.18220703 53.72607422 101.88378906 C52.4967274 105.46683486 51.47458588 109.10759171 50.4375 112.75 C49.04138873 117.61832213 47.54834218 122.38568668 45.75 127.125 C44.63913505 130.05364396 43.96160597 132.30166739 43.5625 135.4375 C42.8655414 139.85157114 41.18040827 143.44943232 39.40234375 147.53125 C37.55410107 152.10294777 36.11516213 156.75971929 34.70019531 161.48022461 C33.61595557 165.08879457 32.40453037 168.48867407 31 172 C21.1 172 11.2 172 1 172 C2.11591356 161.956778 2.11591356 161.956778 4.25 156.5 C6.09357493 151.5733845 7.7044155 146.69555344 9.125 141.625 C12.01339615 131.40973026 15.58219006 121.41403257 19.07861328 111.39501953 C20.40179261 107.60207674 21.7017104 103.80153118 23 100 C23.34256836 99.03819824 23.68513672 98.07639648 24.03808594 97.08544922 C26.91314918 88.53694959 25.29299634 82.12770751 22.3125 73.8125 C19.98512411 67.09523107 17.90648317 60.3483545 16 53.5 C13.97272495 46.25229396 11.75938774 39.10768979 9.33349609 31.984375 C7.14553338 25.52535965 5.11694629 19.02194434 3.125 12.5 C2.8144165 11.48953613 2.50383301 10.47907227 2.18383789 9.43798828 C1.89887451 8.49938965 1.61391113 7.56079102 1.3203125 6.59375 C1.06523926 5.75521484 0.81016602 4.91667969 0.54736328 4.05273438 C0 2 0 2 0 0 Z " fill="#060506" transform="translate(854,501)" />
  <path d="M0 0 C11.55 0 23.1 0 35 0 C35 40.92 35 81.84 35 124 C23.45 124 11.9 124 0 124 C0 83.08 0 42.16 0 0 Z " fill="#020202" transform="translate(572,353)" />
  <path d="M0 0 C3.84654968 2.32692512 7.02134069 5.19820733 10.21484375 8.33984375 C10.97796875 8.99984375 11.74109375 9.65984375 12.52734375 10.33984375 C18.51311419 17.43409019 18.65868617 27.01377552 18.546875 35.8671875 C17.49443766 46.87444392 12.1797798 54.959098 4.21484375 62.33984375 C-3.66104286 68.73165471 -12.90690702 67.85184826 -22.56640625 67.1328125 C-30.32815016 66.04281451 -34.88876767 62.16307667 -39.54296875 56.01953125 C-41.03955001 53.82888331 -42.45354226 51.63412136 -43.78515625 49.33984375 C-44.14867187 48.71464844 -44.5121875 48.08945312 -44.88671875 47.4453125 C-48.39263916 39.22926423 -48.10914752 26.21857256 -45.28515625 17.83984375 C-44.79015625 16.68484375 -44.29515625 15.52984375 -43.78515625 14.33984375 C-43.12515625 14.33984375 -42.46515625 14.33984375 -41.78515625 14.33984375 C-41.68332031 13.76234375 -41.58148438 13.18484375 -41.4765625 12.58984375 C-39.97836838 7.71436457 -35.87522909 3.68100566 -31.6484375 0.96875 C-21.86374602 -3.9688115 -10.06999777 -4.70826851 0 0 Z " fill="#EAEAE9" transform="translate(402.78515625,381.66015625)" />
  <path d="M0 0 C195.03 0 390.06 0 591 0 C591 1.98 591 3.96 591 6 C395.97 6 200.94 6 0 6 C0 4.02 0 2.04 0 0 Z " fill="#000000" transform="translate(249,706)" />
  <path d="M0 0 C0.65613281 0.36222656 1.31226563 0.72445312 1.98828125 1.09765625 C8.11015906 4.96479534 11.61992775 10.50638548 13.3125 17.5 C15.26656525 29.65654054 15.44813928 41.98838354 8.125 52.3125 C2.73752401 58.9482936 -3.90097744 63.22462039 -12.51953125 64.3203125 C-15.05319003 64.37617269 -17.47857422 64.25135709 -20 64 C-20.84820313 63.9175 -21.69640625 63.835 -22.5703125 63.75 C-29.96864577 62.66400613 -35.03959127 59.69211973 -39.72265625 53.8515625 C-45.19651635 45.97027989 -47.51664655 39.66575627 -47.4375 30.125 C-47.45748047 29.27808594 -47.47746094 28.43117188 -47.49804688 27.55859375 C-47.49106898 18.4454598 -43.86657763 9.96390918 -37.4375 3.40625 C-26.84307816 -6.24224132 -12.51986438 -6.95548021 0 0 Z " fill="#E9E9E8" transform="translate(791,581)" />
  <path d="M0 0 C1.19367187 -0.02578125 2.38734375 -0.0515625 3.6171875 -0.078125 C9.51110414 0.47319905 13.81988267 3.30364245 18.125 7.25 C21.73421877 12.65120851 20.66321332 20.04393531 20.125 26.25 C18.63207688 31.20489079 15.41112073 34.43018373 11.125 37.25 C10.465 37.25 9.805 37.25 9.125 37.25 C8.795 38.24 8.465 39.23 8.125 40.25 C-6.47423694 41.17270458 -6.47423694 41.17270458 -12.2578125 36.81640625 C-17.30672239 31.92603701 -20.00617078 27.09014365 -20.125 20 C-20.02571504 12.46427191 -17.73784496 7.6652107 -12.47265625 2.4140625 C-8.76398673 -0.28809769 -4.44071363 0.05729953 0 0 Z " fill="#060607" transform="translate(588.875,295.75)" />
  <path d="M0 0 C1.98 0 3.96 0 6 0 C6.81604999 1.9151579 7.62770632 3.83218834 8.4375 5.75 C9.11619141 7.35101562 9.11619141 7.35101562 9.80859375 8.984375 C10.20175781 9.97953125 10.59492187 10.9746875 11 12 C11.2784375 12.6496875 11.556875 13.299375 11.84375 13.96875 C12.10228645 17.32972384 10.52126462 19.77292935 9.0625 22.75 C8.49660156 23.92046875 7.93070313 25.0909375 7.34765625 26.296875 C6.68056641 27.63492188 6.68056641 27.63492188 6 29 C4.02 29 2.04 29 0 29 C0.42292156 25.51089713 1.21335433 23.66114313 3.125 20.625 C4.81065824 17.78891076 5 16.93992773 5 13.4375 C3.90882786 9.68659578 2.20242437 7.19706763 0 4 C0 2.68 0 1.36 0 0 Z " fill="#000000" transform="translate(827,725)" />
  <path d="M0 0 C4.95 0 9.9 0 15 0 C15 1.65 15 3.3 15 5 C10.05 5 5.1 5 0 5 C0 3.35 0 1.7 0 0 Z " fill="#000000" transform="translate(807,738)" />
</svg>